<?xml version="1.0" standalone="no"?>
<!DOCTYPE svg PUBLIC "-//W3C//DTD SVG 20010904//EN"
 "http://www.w3.org/TR/2001/REC-SVG-20010904/DTD/svg10.dtd">
<svg version="1.0" xmlns="http://www.w3.org/2000/svg"
 width="800.000000pt" height="800.000000pt" viewBox="0 0 800.000000 800.000000"
 preserveAspectRatio="xMidYMid meet">

<g transform="translate(0.000000,800.000000) scale(0.100000,-0.100000)"
fill="#000000" stroke="none">
<path d="M0 4000 l0 -4000 4000 0 4000 0 0 4000 0 4000 -4000 0 -4000 0 0
-4000z m6795 2802 c198 -66 350 -214 417 -406 l28 -81 0 -2300 c0 -2550 5
-2347 -67 -2494 -51 -105 -170 -224 -273 -275 -145 -71 72 -66 -2896 -66
-1850 0 -2699 3 -2740 11 -32 5 -101 31 -153 56 -167 80 -289 229 -338 413
-17 61 -18 203 -18 2340 0 2140 1 2279 18 2340 32 120 83 207 171 296 92 91
185 144 308 175 69 17 207 18 2773 16 l2700 -2 70 -23z"/>
<path d="M1890 6360 c-25 -8 -24 -8 5 -9 96 -4 199 -54 268 -131 65 -72 81
-126 75 -261 -5 -124 -18 -157 -134 -327 -81 -120 -96 -191 -43 -207 32 -10
129 43 164 90 16 22 40 54 52 70 l23 30 -7 -35 c-15 -90 -90 -206 -160 -250
-46 -29 -46 -30 -17 -30 65 0 187 96 258 204 60 91 79 161 80 296 1 122 -10
172 -62 275 -33 67 -152 183 -228 223 -89 46 -226 77 -274 62z"/>
<path d="M4510 6331 c-129 -27 -209 -149 -198 -302 12 -162 111 -247 280 -237
93 5 124 28 119 89 -1 24 -4 45 -5 47 -2 1 -18 -6 -37 -15 -18 -9 -56 -18 -84
-20 -99 -8 -160 58 -159 172 1 138 99 201 229 145 26 -11 48 -20 49 -20 1 0 4
24 5 54 2 53 2 54 -36 68 -49 20 -119 28 -163 19z"/>
<path d="M2815 6318 c-3 -7 -4 -128 -3 -268 l3 -255 55 0 55 0 0 265 0 265
-53 3 c-36 2 -54 -1 -57 -10z"/>
<path d="M3668 6131 c-3 -182 -5 -201 -23 -221 -15 -17 -28 -21 -57 -18 -37 3
-38 3 -44 -39 -3 -23 -3 -46 1 -52 3 -6 31 -11 62 -11 42 0 67 6 98 25 70 40
75 61 75 304 l0 211 -54 0 -55 0 -3 -199z"/>
<path d="M3905 6318 c-3 -8 -4 -128 -3 -268 l3 -255 163 -3 162 -2 0 55 0 55
-105 0 -105 0 0 55 0 55 100 0 100 0 0 50 0 50 -100 0 -100 0 0 55 0 55 111 0
110 0 -3 53 -3 52 -163 3 c-126 2 -164 0 -167 -10z"/>
<path d="M4797 6323 c-2 -5 -4 -28 -3 -53 l1 -45 78 -3 77 -3 0 -215 0 -215
51 3 51 3 0 212 -1 212 77 3 77 3 0 50 0 50 -202 3 c-111 1 -203 -1 -206 -5z"/>
<path d="M5280 6060 l0 -270 55 0 55 0 0 270 0 270 -55 0 -55 0 0 -270z"/>
<path d="M5488 6323 c-16 -2 -28 -6 -28 -8 0 -4 163 -450 186 -508 5 -15 16
-17 57 -15 l51 3 71 190 c130 350 125 335 111 341 -8 3 -35 4 -62 2 l-48 -3
-38 -117 c-21 -64 -48 -153 -62 -199 -22 -79 -24 -82 -30 -49 -11 51 -107 343
-119 358 -9 12 -34 13 -89 5z"/>
<path d="M6020 6060 l0 -270 163 2 162 3 0 50 0 50 -107 3 -108 3 0 54 0 55
100 0 100 0 0 50 0 50 -100 0 -100 0 0 55 0 55 111 0 110 0 -3 53 -3 52 -162
3 -163 2 0 -270z"/>
<path d="M3032 6058 l3 -263 48 -3 47 -3 0 171 0 172 113 -171 112 -171 40 2
40 3 3 263 2 262 -51 0 -50 0 3 -160 c2 -88 1 -160 -2 -159 -3 0 -52 72 -110
160 l-104 159 -48 0 -48 0 2 -262z"/>
<path d="M1622 6293 c-13 -3 -19 -9 -16 -15 4 -7 2 -8 -4 -4 -19 11 -118 -59
-162 -115 -83 -105 -120 -212 -120 -353 0 -157 58 -294 171 -401 80 -75 145
-111 238 -131 90 -19 147 -17 67 2 -300 73 -455 430 -310 716 26 51 66 88 96
88 22 0 80 -28 90 -44 17 -25 6 -83 -29 -160 -37 -79 -38 -84 -38 -196 0 -105
2 -120 28 -171 56 -115 186 -199 317 -206 l75 -4 -59 25 c-33 14 -64 22 -70
19 -6 -3 -8 -3 -4 2 4 4 -11 28 -33 52 -49 53 -77 113 -89 190 -13 78 -1 116
65 205 88 119 108 163 109 238 1 71 -28 165 -46 154 -7 -5 -8 -2 -3 5 10 17
-40 69 -90 92 -38 18 -124 23 -183 12z m168 -28 c0 -2 -6 -5 -13 -8 -8 -3 -14
1 -14 8 0 7 6 11 14 8 7 -3 13 -6 13 -8z m74 -61 c4 -10 2 -13 -6 -8 -8 5 -9
1 -4 -12 5 -14 4 -16 -4 -8 -6 6 -8 18 -4 27 8 21 10 21 18 1z"/>
<path d="M4602 5575 c-45 -20 -68 -73 -51 -122 9 -28 20 -39 58 -54 105 -44
118 -58 78 -84 -25 -16 -42 -13 -119 20 -15 6 -18 2 -18 -29 0 -48 40 -70 118
-64 71 6 112 46 112 109 0 49 -26 76 -96 99 -54 19 -78 45 -54 61 14 9 71 6
104 -7 13 -5 16 1 16 29 0 33 -3 37 -37 46 -50 14 -71 13 -111 -4z"/>
<path d="M5575 5583 c-78 -21 -127 -120 -105 -214 22 -90 81 -136 165 -127 60
7 93 31 117 85 51 116 -9 248 -118 258 -21 2 -48 1 -59 -2z m90 -88 c45 -44
29 -169 -23 -182 -43 -10 -76 8 -91 53 -37 105 46 198 114 129z"/>
<path d="M2800 5416 l0 -166 30 0 30 0 0 103 1 102 33 -85 c30 -78 36 -85 62
-88 28 -3 31 1 57 67 15 39 27 75 27 80 0 5 3 12 8 14 4 3 7 -41 7 -96 l0
-102 33 -3 32 -3 0 170 0 171 -39 0 -39 0 -38 -97 c-39 -101 -54 -129 -54
-101 0 9 -15 56 -34 105 l-34 88 -41 3 -41 3 0 -165z"/>
<path d="M3192 5413 l3 -168 35 0 35 0 3 168 2 167 -40 0 -40 0 2 -167z"/>
<path d="M3340 5416 l0 -164 30 -4 29 -4 3 99 3 100 68 -102 c61 -92 71 -102
95 -99 l27 3 3 168 2 167 -30 0 c-37 0 -44 -23 -38 -126 3 -41 4 -74 3 -74 -1
0 -32 45 -70 100 -60 87 -72 100 -97 100 l-28 0 0 -164z"/>
<path d="M3670 5420 c0 -88 0 -163 0 -167 0 -5 15 -9 35 -11 l35 -3 0 170 0
171 -35 0 -35 0 0 -160z"/>
<path d="M3920 5409 l0 -172 78 7 c136 12 192 60 192 165 0 117 -63 171 -197
171 l-73 0 0 -171z m169 76 c33 -33 35 -115 4 -146 -20 -20 -87 -42 -97 -31
-9 8 -7 198 1 206 14 13 67 -4 92 -29z"/>
<path d="M4277 5415 c-32 -91 -57 -167 -57 -170 0 -3 16 -5 36 -5 30 0 37 4
45 30 10 28 14 30 64 30 50 0 54 -2 64 -30 8 -26 15 -30 45 -30 20 0 36 5 36
11 0 8 -32 104 -102 302 -8 22 -16 27 -42 27 l-33 0 -56 -165z m117 -29 c6
-24 4 -26 -30 -26 -30 0 -35 3 -31 18 3 9 11 38 18 65 l13 47 12 -39 c6 -22
14 -51 18 -65z"/>
<path d="M4842 5413 l3 -168 35 0 35 0 1 70 0 70 57 3 56 3 3 -73 3 -73 38 -3
37 -3 0 170 0 171 -40 0 -40 0 0 -65 0 -65 -59 0 -59 0 3 65 3 65 -39 0 -39 0
2 -167z"/>
<path d="M5177 5573 c-4 -3 -7 -78 -7 -165 0 -126 3 -160 14 -164 7 -3 53 -1
102 4 77 9 91 14 111 37 32 36 30 80 -5 115 -26 26 -27 28 -10 39 44 28 29
103 -27 126 -34 15 -166 21 -178 8z m149 -74 c19 -21 18 -21 -5 -40 -13 -10
-34 -19 -47 -19 -21 0 -24 4 -24 40 0 37 2 40 28 40 17 0 37 -9 48 -21z m-12
-119 c18 -7 26 -17 26 -34 0 -29 -3 -31 -52 -40 l-38 -7 0 46 c0 49 11 55 64
35z"/>
<path d="M5861 5422 c-30 -86 -56 -163 -59 -169 -3 -9 7 -13 32 -13 32 0 38 4
47 30 10 28 14 30 65 30 52 0 56 -2 65 -30 9 -25 16 -30 45 -30 19 0 34 4 34
9 0 7 -88 269 -105 314 -5 11 -18 17 -39 17 l-31 0 -54 -158z m119 -59 c0 -2
-16 -3 -35 -3 -19 0 -35 2 -35 5 0 3 8 33 17 66 l17 61 18 -64 c9 -34 17 -64
18 -65z"/>
<path d="M6140 5411 l0 -171 35 0 35 0 0 65 c0 93 24 88 85 -17 25 -44 30 -48
66 -48 21 0 39 3 39 8 0 4 -19 36 -43 71 l-42 65 28 28 c24 24 28 34 25 74 -4
69 -34 88 -144 93 l-84 3 0 -171z m152 86 c22 -35 -1 -67 -49 -67 -33 0 -33 1
-33 46 l0 46 37 -7 c21 -4 41 -12 45 -18z"/>
<path d="M6442 5414 l3 -169 70 3 c92 4 128 16 164 57 60 69 48 186 -26 242
-31 23 -47 27 -124 31 l-89 4 2 -168z m151 90 c41 -13 60 -100 32 -153 -16
-32 -33 -41 -76 -41 l-29 0 0 104 0 105 28 -5 c15 -3 35 -7 45 -10z"/>
<path d="M4510 4685 c0 -29 -4 -35 -20 -35 -30 0 -75 -26 -99 -56 -46 -58 -14
-132 74 -173 l45 -21 0 -65 c0 -71 -11 -82 -45 -45 -11 12 -31 20 -52 20 -27
0 -33 -4 -33 -20 0 -52 33 -84 108 -105 16 -5 22 -14 22 -36 0 -26 3 -29 30
-29 27 0 30 3 30 30 0 26 5 31 40 41 51 16 87 51 102 102 17 57 -9 101 -84
141 l-58 31 0 53 c0 55 4 60 34 37 11 -8 30 -15 43 -15 19 0 23 5 23 29 0 33
-48 81 -81 81 -15 0 -19 7 -19 35 0 32 -2 35 -30 35 -28 0 -30 -3 -30 -35z m0
-150 c0 -25 -4 -45 -10 -45 -18 0 -51 40 -44 53 31 54 54 50 54 -8z m98 -181
c26 -18 28 -46 6 -68 -30 -31 -44 -20 -44 34 0 54 4 58 38 34z"/>
<path d="M5727 4659 c-21 -5 -51 -16 -68 -25 -27 -14 -30 -19 -25 -46 3 -17 6
-34 6 -39 0 -4 19 1 43 11 23 11 61 20 84 20 35 0 46 -5 60 -26 25 -39 3 -74
-60 -94 -41 -13 -47 -19 -47 -42 0 -24 4 -28 29 -28 74 0 121 -43 101 -94 -18
-48 -82 -60 -150 -27 l-38 18 -6 -30 c-10 -50 -7 -55 39 -72 65 -25 152 -17
199 18 67 52 74 154 12 203 l-33 26 23 23 c67 67 29 177 -71 204 -45 12 -46
12 -98 0z"/>
<path d="M5138 4644 c-43 -13 -48 -18 -48 -43 0 -54 7 -61 45 -45 40 16 108
18 135 4 27 -14 34 -56 14 -88 -9 -15 -61 -65 -115 -112 l-99 -85 0 -47 0 -48
165 0 165 0 0 45 0 45 -111 0 -111 0 91 75 c100 83 121 114 121 175 0 112
-113 167 -252 124z"/>
<path d="M4905 4639 c-119 -28 -115 -25 -115 -74 0 -25 2 -45 4 -45 2 0 22 7
45 15 l41 14 0 -184 0 -185 50 0 50 0 0 235 c0 263 7 243 -75 224z"/>
<path d="M6149 4558 c-34 -51 -81 -118 -105 -149 -36 -45 -44 -63 -44 -98 l0
-42 103 2 102 3 3 -47 3 -47 45 0 44 0 0 51 c0 49 1 51 25 47 23 -5 25 -2 25
33 0 35 -3 39 -25 39 l-25 0 0 150 0 150 -45 0 -44 0 -62 -92z m61 -123 l0
-85 -66 0 -66 0 29 33 c16 18 44 57 63 85 18 29 35 52 37 52 2 0 3 -38 3 -85z"/>
<path d="M6447 4603 c-3 -27 -9 -84 -13 -128 l-6 -80 79 3 c77 4 81 3 101 -23
29 -37 28 -61 -7 -96 -35 -35 -68 -37 -130 -9 -24 11 -44 20 -46 20 -2 0 -5
-18 -7 -41 -3 -39 -2 -42 34 -60 54 -28 145 -26 188 4 52 35 73 70 77 129 3
41 -1 60 -17 86 -25 40 -89 71 -148 72 l-43 0 3 43 4 42 92 3 92 3 0 39 0 40
-124 0 -123 0 -6 -47z"/>
<path d="M3232 4528 c-26 -26 -12 -59 50 -124 33 -35 66 -64 72 -64 13 0 114
102 139 139 12 17 13 29 6 43 -9 16 -23 18 -132 18 -82 0 -127 -4 -135 -12z"/>
<path d="M1557 4479 c-21 -29 -22 -53 -1 -73 14 -14 91 -16 695 -16 450 0 687
4 700 10 22 12 26 62 6 78 -8 7 -242 13 -698 18 l-686 7 -16 -24z"/>
<path d="M5482 4258 c-13 -13 -16 -47 -4 -64 24 -36 92 -14 92 29 0 30 -18 47
-50 47 -14 0 -31 -5 -38 -12z"/>
<path d="M4548 3191 c-29 -26 -33 -36 -33 -80 0 -41 5 -55 29 -80 57 -59 147
-46 181 26 55 115 -83 218 -177 134z"/>
<path d="M4952 3173 c-31 -28 -35 -56 -11 -86 l20 -27 623 0 c591 0 624 1 639
18 23 25 21 68 -3 92 -20 20 -33 20 -634 20 -570 0 -615 -1 -634 -17z"/>
<path d="M3609 2865 c-34 -18 -36 -24 -38 -118 -2 -58 2 -85 14 -103 l15 -24
205 0 c189 0 205 1 205 18 0 14 2 15 10 2 9 -13 11 -13 20 0 12 17 9 214 -3
227 -5 4 -97 9 -205 11 -158 2 -202 -1 -223 -13z m74 -25 c-3 -11 -9 -20 -13
-20 -5 0 -6 9 -3 20 3 11 9 20 13 20 5 0 6 -9 3 -20z m-58 3 c-11 -3 -27 -10
-35 -17 -13 -10 -13 -9 -1 7 7 9 23 16 35 16 20 -1 20 -2 1 -6z m215 -15 c0
-4 -9 -8 -19 -8 -11 0 -22 4 -25 8 -2 4 6 8 20 8 13 0 24 -4 24 -8z m-235 -18
c-9 -14 8 -13 23 2 6 6 15 8 19 4 4 -4 2 -10 -4 -14 -7 -4 -17 -21 -24 -37
l-12 -30 -8 35 c-5 28 -7 22 -6 -27 1 -34 -1 -65 -4 -67 -11 -11 -8 118 2 131
13 15 23 18 14 3z m278 -7 c-7 -2 -19 -2 -25 0 -7 3 -2 5 12 5 14 0 19 -2 13
-5z m130 -23 c-3 -11 -9 -17 -14 -15 -10 7 -1 35 11 35 5 0 6 -9 3 -20z m24
-27 c-3 -10 -5 -4 -5 12 0 17 2 24 5 18 2 -7 2 -21 0 -30z m-147 -3 c0 -5 -11
-10 -25 -10 -14 0 -25 5 -25 10 0 6 11 10 25 10 14 0 25 -4 25 -10z m120 -49
c0 -5 -9 -7 -20 -4 -11 3 -20 7 -20 9 0 2 9 4 20 4 11 0 20 -4 20 -9z m30 -6
c0 -8 -4 -15 -10 -15 -5 0 -7 7 -4 15 4 8 8 15 10 15 2 0 4 -7 4 -15z m-361
-11 c2 -2 -16 -4 -40 -4 -31 0 -40 3 -29 10 13 8 57 4 69 -6z m144 -21 c-13
-2 -33 -2 -45 0 -13 2 -3 4 22 4 25 0 35 -2 23 -4z m-153 -23 c-19 -13 -30
-13 -30 0 0 6 10 10 23 10 18 0 19 -2 7 -10z"/>
<path d="M4568 2774 c-53 -28 -72 -98 -43 -154 34 -66 120 -82 175 -32 102 90
-12 251 -132 186z"/>
<path d="M4967 2743 c-21 -6 -50 -59 -41 -76 4 -7 16 -22 27 -34 l20 -23 449
0 c435 0 449 1 468 20 26 26 26 72 -1 96 -20 18 -44 19 -463 20 -242 1 -449 0
-459 -3z"/>
<path d="M3295 2481 c-11 -5 -25 -6 -31 -4 -27 10 -44 -40 -44 -129 0 -81 12
-120 26 -84 8 20 24 11 24 -12 0 -13 -2 -14 -9 -4 -7 11 -9 11 -14 -2 -3 -8
-2 -18 2 -20 16 -10 774 -5 793 5 16 8 18 24 18 112 0 160 37 146 -388 146
-196 0 -366 -4 -377 -8z m-25 -21 c0 -5 -4 -10 -10 -10 -5 0 -10 5 -10 10 0 6
5 10 10 10 6 0 10 -4 10 -10z m303 -7 c-7 -2 -19 -2 -25 0 -7 3 -2 5 12 5 14
0 19 -2 13 -5z m385 0 c-10 -2 -26 -2 -35 0 -10 3 -2 5 17 5 19 0 27 -2 18 -5z
m-698 -41 c0 -15 2 -15 10 -2 15 24 11 -2 -5 -30 l-14 -25 -1 27 c0 14 -3 34
-7 44 -4 12 -3 15 5 10 7 -4 12 -15 12 -24z m750 3 c0 -8 -4 -15 -10 -15 -5 0
-7 7 -4 15 4 8 8 15 10 15 2 0 4 -7 4 -15z m-710 -45 c0 -5 -4 -10 -10 -10 -5
0 -10 5 -10 10 0 6 5 10 10 10 6 0 10 -4 10 -10z m-45 -50 c3 -6 -1 -7 -9 -4
-18 7 -21 14 -7 14 6 0 13 -4 16 -10z m108 3 c3 -5 -6 -9 -19 -9 -13 -1 -21 2
-18 7 6 11 31 12 37 2z m653 -31 c1 -20 -1 -27 -3 -14 -2 12 -8 20 -13 17 -4
-3 -6 4 -3 15 8 32 18 23 19 -18z m-739 6 c-3 -8 -6 -5 -6 6 -1 11 2 17 5 13
3 -3 4 -12 1 -19z m68 -8 c3 -5 -1 -10 -10 -10 -9 0 -13 5 -10 10 3 6 8 10 10
10 2 0 7 -4 10 -10z m415 0 c0 -5 -4 -10 -9 -10 -6 0 -13 5 -16 10 -3 6 1 10
9 10 9 0 16 -4 16 -10z m281 -34 c-6 -14 -16 -26 -23 -26 -9 0 -10 3 -2 8 6 4
15 17 19 30 4 13 9 22 11 19 3 -2 0 -16 -5 -31z m-671 -16 c0 -5 -12 -10 -26
-10 -14 0 -23 4 -19 10 3 6 15 10 26 10 10 0 19 -4 19 -10z"/>
<path d="M4584 2350 c-34 -13 -74 -69 -74 -101 0 -68 49 -119 115 -119 47 0
79 19 100 60 49 95 -43 200 -141 160z"/>
<path d="M4950 2300 c-31 -31 -30 -76 3 -102 20 -16 72 -18 680 -18 644 0 657
0 677 20 34 34 25 82 -21 105 -24 13 -127 15 -674 15 -632 0 -645 0 -665 -20z"/>
<path d="M3182 2100 l-314 -5 -19 -24 c-16 -19 -19 -40 -19 -116 0 -68 4 -98
14 -108 12 -12 107 -14 598 -16 350 0 589 3 598 8 9 7 16 33 18 80 5 80 -5
164 -18 156 -4 -3 -10 1 -12 7 -4 10 -56 14 -214 15 -115 1 -234 4 -264 5 -30
2 -196 1 -368 -2z m251 -17 c-7 -2 -21 -2 -30 0 -10 3 -4 5 12 5 17 0 24 -2
18 -5z m94 1 c-3 -3 -12 -4 -19 -1 -8 3 -5 6 6 6 11 1 17 -2 13 -5z m131 -1
c-10 -2 -26 -2 -35 0 -10 3 -2 5 17 5 19 0 27 -2 18 -5z m182 -3 c0 -5 -15
-10 -32 -10 -25 0 -29 3 -18 10 20 13 50 13 50 0z m-883 -6 c-3 -3 -12 -4 -19
-1 -8 3 -5 6 6 6 11 1 17 -2 13 -5z m60 0 c-3 -3 -12 -4 -19 -1 -8 3 -5 6 6 6
11 1 17 -2 13 -5z m1001 -40 c-3 -14 -5 -12 -10 9 -3 19 -2 25 4 19 6 -6 8
-18 6 -28z m-231 10 c-3 -3 -12 -4 -19 -1 -8 3 -5 6 6 6 11 1 17 -2 13 -5z
m-924 -76 c-6 -7 -13 -22 -16 -33 -3 -13 -5 -10 -6 12 0 17 5 33 12 36 17 6
22 0 10 -15z m12 -83 c0 -19 -2 -35 -5 -35 -10 0 -30 24 -30 35 0 5 5 3 10 -5
8 -12 10 -9 10 13 0 15 3 27 8 27 4 0 7 -16 7 -35z m208 28 c-7 -2 -21 -2 -30
0 -10 3 -4 5 12 5 17 0 24 -2 18 -5z m514 1 c-3 -3 -12 -4 -19 -1 -8 3 -5 6 6
6 11 1 17 -2 13 -5z m106 -1 c-7 -2 -19 -2 -25 0 -7 3 -2 5 12 5 14 0 19 -2
13 -5z m-443 -23 c0 -5 -5 -10 -11 -10 -5 0 -7 5 -4 10 3 6 8 10 11 10 2 0 4
-4 4 -10z m449 -30 c-8 -4 -45 -10 -84 -12 -38 -3 -60 -3 -47 -1 12 2 22 9 22
14 0 6 8 9 18 8 9 -1 28 -1 41 0 19 1 21 3 11 16 -10 12 -6 12 20 -2 24 -11
29 -18 19 -23z m-164 10 c3 -5 -1 -10 -9 -10 -9 0 -16 5 -16 10 0 6 4 10 9 10
6 0 13 -4 16 -10z m338 -10 c4 -14 0 -20 -12 -20 -10 0 -17 8 -18 20 -1 11 4
20 11 20 8 0 16 -9 19 -20z m75 -9 c24 1 29 3 14 6 -12 2 -20 9 -17 14 10 15
43 10 54 -8 6 -10 11 -12 11 -5 0 6 4 12 10 12 5 0 7 -7 4 -15 -5 -11 -22 -15
-69 -15 -55 0 -63 2 -60 18 5 27 7 28 12 10 3 -14 14 -18 41 -17z m-820 12
c-10 -2 -26 -2 -35 0 -10 3 -2 5 17 5 19 0 27 -2 18 -5z m59 1 c-3 -3 -12 -4
-19 -1 -8 3 -5 6 6 6 11 1 17 -2 13 -5z m63 -4 c0 -5 -4 -10 -10 -10 -5 0 -10
5 -10 10 0 6 5 10 10 10 6 0 10 -4 10 -10z m580 -5 c0 -8 -7 -15 -15 -15 -16
0 -20 12 -8 23 11 12 23 8 23 -8z"/>
<path d="M4570 1908 c-62 -33 -76 -127 -27 -184 29 -33 91 -43 135 -20 66 34
81 132 29 184 -30 29 -100 39 -137 20z"/>
<path d="M4962 1873 c-7 -3 -19 -18 -27 -33 -18 -34 -7 -73 24 -89 29 -16 885
-15 914 0 29 16 37 28 37 61 0 17 -9 34 -26 47 -26 21 -36 21 -468 20 -242 0
-447 -3 -454 -6z"/>
<path d="M2533 1687 c-28 -12 -33 -34 -33 -139 0 -65 4 -90 16 -102 14 -14 96
-16 755 -16 485 0 738 3 734 10 -3 5 0 7 8 4 9 -3 24 7 37 23 19 25 21 38 18
109 -2 60 -7 85 -20 98 -10 9 -22 15 -27 11 -5 -3 -12 -1 -16 5 -10 16 -752
14 -759 -2 -5 -10 -7 -10 -12 0 -8 17 -545 18 -573 0 -14 -9 -31 -9 -63 -2
-28 7 -52 7 -65 1z m42 -17 c-4 -6 -11 -8 -16 -5 -17 11 -9 -18 9 -31 15 -12
15 -13 0 -14 -9 0 -20 12 -26 28 -9 25 -7 28 15 30 14 1 22 -2 18 -8z m1112
-37 c-3 -10 -5 -4 -5 12 0 17 2 24 5 18 2 -7 2 -21 0 -30z m-1165 5 c-7 -7
-12 -8 -12 -2 0 6 3 14 7 17 3 4 9 5 12 2 2 -3 -1 -11 -7 -17z m1497 -7 c-3
-6 -10 -7 -18 -2 -7 5 -10 14 -6 21 9 14 29 -2 24 -19z m28 7 c-3 -8 -6 -5 -6
6 -1 11 2 17 5 13 3 -3 4 -12 1 -19z m-1497 -49 c0 -14 -17 -10 -23 5 -4 10
-1 13 9 9 7 -3 14 -9 14 -14z m-29 -46 c-9 -15 -10 -12 -10 17 0 29 1 32 10
18 7 -12 7 -24 0 -35z m33 -19 c9 -24 7 -27 -9 -10 -17 17 -19 26 -6 26 5 0
12 -7 15 -16z m1483 -6 c-3 -8 -6 -5 -6 6 -1 11 2 17 5 13 3 -3 4 -12 1 -19z
m4 -23 c15 10 10 -11 -6 -25 -15 -13 -35 -6 -35 13 0 7 4 6 10 -3 5 -8 12 -11
16 -7 4 4 2 13 -4 19 -7 7 -12 17 -12 23 0 5 5 2 11 -8 6 -9 14 -15 20 -12z
m-1507 -9 c-6 -15 -24 -23 -24 -11 0 8 24 34 28 30 1 -1 0 -10 -4 -19z m19
-26 c3 -11 1 -20 -4 -20 -5 0 -9 9 -9 20 0 11 2 20 4 20 2 0 6 -9 9 -20z m487
-10 c0 -5 -5 -10 -11 -10 -5 0 -7 5 -4 10 3 6 8 10 11 10 2 0 4 -4 4 -10z
m-357 -7 c-7 -2 -21 -2 -30 0 -10 3 -4 5 12 5 17 0 24 -2 18 -5z m164 1 c-3
-3 -12 -4 -19 -1 -8 3 -5 6 6 6 11 1 17 -2 13 -5z m60 0 c-3 -3 -12 -4 -19 -1
-8 3 -5 6 6 6 11 1 17 -2 13 -5z m60 0 c-3 -3 -12 -4 -19 -1 -8 3 -5 6 6 6 11
1 17 -2 13 -5z m136 -1 c-7 -2 -21 -2 -30 0 -10 3 -4 5 12 5 17 0 24 -2 18 -5z
m390 0 c-7 -2 -19 -2 -25 0 -7 3 -2 5 12 5 14 0 19 -2 13 -5z m304 1 c-3 -3
-12 -4 -19 -1 -8 3 -5 6 6 6 11 1 17 -2 13 -5z m106 -1 c-13 -2 -35 -2 -50 0
-16 2 -5 4 22 4 28 0 40 -2 28 -4z"/>
</g>
</svg>
